<?xml version="1.0" standalone="no"?>
<!DOCTYPE svg PUBLIC "-//W3C//DTD SVG 20010904//EN"
 "http://www.w3.org/TR/2001/REC-SVG-20010904/DTD/svg10.dtd">
<svg version="1.0" xmlns="http://www.w3.org/2000/svg"
 width="300.000000pt" height="75.000000pt" viewBox="0 0 300.000000 75.000000"
 preserveAspectRatio="xMidYMid meet">
<metadata>
Created by potrace 1.10, written by Peter Selinger 2001-2011
</metadata>
<g transform="translate(0.000000,75.000000) scale(0.100000,-0.100000)"
fill="#000000" stroke="none">
<path d="M261 671 c-23 -12 -30 -21 -22 -25 8 -6 -6 -28 -46 -69 -100 -105
-125 -157 -77 -157 24 0 43 -30 44 -66 0 -31 -36 -96 -95 -169 -27 -34 -31
-46 -27 -82 l4 -43 64 0 64 0 0 113 c0 103 2 116 21 133 29 26 61 91 57 117
-3 19 -9 22 -55 22 -31 -1 -53 4 -53 10 0 33 106 169 126 161 9 -3 19 7 29 31
22 52 20 53 -34 24z m-36 -261 c0 -18 -6 -26 -23 -28 -27 -4 -40 22 -22 44 19
22 45 13 45 -16z m-15 -59 c-1 -3 -15 -22 -31 -41 l-31 -35 16 32 c9 18 16 39
16 47 0 10 6 13 15 10 8 -4 15 -9 15 -13z m-50 -181 l0 -90 -50 0 -50 0 0 38
c0 30 9 47 46 90 25 28 47 52 50 52 2 0 4 -40 4 -90z"/>
<path d="M627 670 c-77 -15 -115 -67 -116 -157 -1 -76 23 -118 100 -169 94
-62 99 -68 99 -120 0 -37 -3 -44 -20 -44 -16 0 -19 8 -22 58 l-3 57 -77 3 -76
3 5 -63 c10 -118 47 -157 157 -165 49 -4 73 -1 108 15 69 30 81 54 77 161 -5
105 -12 117 -121 188 -69 45 -86 71 -73 112 12 40 35 24 35 -24 l0 -45 75 0
75 0 0 50 c0 64 -20 103 -62 123 -43 19 -113 27 -161 17z m120 -35 c54 -16 73
-41 73 -95 0 -29 -2 -30 -45 -30 -37 0 -45 3 -45 18 0 20 -31 62 -45 62 -20 0
-45 -35 -45 -62 0 -44 13 -62 90 -117 85 -62 100 -89 100 -181 0 -57 -4 -74
-20 -90 -59 -59 -199 -52 -244 11 -9 14 -16 43 -16 72 l0 48 43 -3 c41 -3 42
-4 48 -46 5 -37 28 -71 51 -72 15 0 48 54 48 79 -1 48 -21 70 -134 151 -44 31
-66 75 -66 133 0 81 21 110 95 128 46 11 57 10 112 -6z"/>
<path d="M2247 668 c-51 -14 -93 -56 -107 -108 -7 -28 -10 -105 -8 -216 3
-188 7 -200 72 -248 40 -30 172 -30 212 0 67 50 69 56 69 272 0 179 -2 200
-20 231 -35 60 -136 92 -218 69z m151 -42 c52 -27 57 -51 57 -262 0 -211 -1
-216 -67 -250 -41 -21 -127 -18 -166 6 -53 33 -62 68 -62 246 0 171 10 227 47
251 49 33 137 37 191 9z"/>
<path d="M2287 572 c-15 -16 -17 -45 -17 -204 0 -172 1 -186 20 -203 19 -17
21 -17 40 0 19 17 20 31 20 208 0 169 -2 191 -17 203 -24 18 -27 17 -46 -4z
m38 -198 c0 -172 -2 -189 -17 -192 -17 -3 -18 11 -18 186 0 104 3 192 7 196
23 23 28 -11 28 -190z"/>
<path d="M910 433 c0 -266 6 -297 69 -335 50 -32 176 -33 217 -2 69 51 69 50
69 321 l0 246 -80 -1 -80 0 -2 -229 c-1 -125 -3 -234 -3 -240 0 -7 -7 -13 -15
-13 -13 0 -15 34 -15 243 l0 242 -80 0 -80 0 0 -232z m132 173 c1 -11 2 -110
2 -219 1 -185 2 -200 20 -213 25 -18 31 -18 50 2 14 13 16 49 16 234 l0 218
28 4 c15 2 38 1 52 -2 l25 -6 3 -201 c3 -229 -4 -264 -57 -300 -60 -40 -168
-27 -216 27 -19 20 -20 39 -23 250 l-4 229 29 3 c49 6 73 -3 75 -26z"/>
<path d="M1330 665 c0 0 -1 -132 -3 -293 l-2 -292 70 0 70 0 -3 115 c-4 128
-22 159 -22 38 0 -110 -5 -123 -46 -123 l-34 0 0 261 0 260 42 -3 42 -3 22
-83 c21 -77 41 -119 51 -108 4 4 -14 82 -43 181 l-14 50 -65 0 c-36 0 -65 0
-65 0z"/>
<path d="M1532 563 c2 -63 8 -107 16 -115 9 -9 12 7 12 79 0 92 7 110 40 107
8 -1 21 -2 28 -3 9 -1 12 -60 12 -261 l0 -260 -44 0 -44 0 -17 68 c-20 81 -47
143 -52 122 -2 -9 7 -61 20 -115 l24 -100 72 -3 71 -3 0 293 0 293 -71 0 -71
0 4 -102z"/>
<path d="M1730 373 l0 -293 80 0 80 0 0 130 c0 109 2 130 15 130 13 0 15 -21
15 -130 l0 -130 80 0 80 0 0 103 c0 126 -11 170 -46 186 -35 16 -39 10 -14
-22 17 -22 20 -40 20 -131 l0 -106 -39 0 -38 0 -8 102 c-9 133 -36 177 -78
130 -14 -15 -17 -40 -17 -126 l0 -107 -47 3 -48 3 -3 258 -2 259 120 -4 c116
-3 122 -4 140 -28 25 -32 29 -160 5 -180 -19 -15 -19 -30 -2 -30 33 0 51 40
51 108 0 134 -33 159 -217 164 l-127 3 0 -292z"/>
<path d="M2550 665 c0 0 -1 -132 -3 -293 l-2 -292 130 1 c72 1 143 4 159 8 44
9 67 49 73 122 6 86 -6 138 -39 162 -39 29 -55 17 -21 -17 26 -27 28 -33 28
-112 0 -73 -3 -86 -23 -106 -21 -21 -31 -23 -145 -23 l-122 0 -3 258 -2 257
98 0 c117 0 156 -11 171 -48 26 -67 21 -123 -15 -160 -23 -22 0 -29 30 -9 61
40 35 202 -37 232 -25 10 -162 20 -277 20z"/>
<path d="M1878 559 c-37 -39 -15 -139 30 -139 37 0 55 91 26 135 -19 29 -33
30 -56 4z m40 -16 c8 -16 9 -39 3 -90 0 -7 -8 -13 -16 -13 -12 0 -15 13 -15
60 0 59 11 76 28 43z"/>
<path d="M2697 562 c-24 -26 -23 -110 1 -128 9 -7 22 -14 29 -14 43 -1 60 103
23 140 -25 25 -32 25 -53 2z m43 -21 c19 -37 10 -101 -16 -101 -10 0 -14 15
-14 60 0 61 11 76 30 41z"/>
<path d="M2698 346 c-14 -10 -18 -28 -18 -83 0 -64 2 -71 25 -83 22 -12 27
-11 45 5 28 25 29 134 2 158 -22 20 -31 21 -54 3z m46 -22 c3 -9 6 -35 6 -59
0 -53 -8 -75 -26 -75 -11 0 -14 18 -14 75 0 57 3 75 14 75 8 0 17 -7 20 -16z"/>
</g>
</svg>
